<svg id="visual" viewBox="0 0 900 600" width="900" height="600" xmlns="http://www.w3.org/2000/svg" xmlns:xlink="http://www.w3.org/1999/xlink" version="1.1"><rect x="0" y="0" width="900" height="600" fill="#171a1c"></rect><path d="M633 600L315 600L315 574L294 574L294 548L319 548L319 522L298 522L298 496L442 496L442 470L370 470L370 443L484 443L484 417L642 417L642 391L555 391L555 365L331 365L331 339L668 339L668 313L650 313L650 287L565 287L565 261L376 261L376 235L431 235L431 209L359 209L359 183L343 183L343 157L657 157L657 130L631 130L631 104L520 104L520 78L484 78L484 52L492 52L492 26L595 26L595 0L900 0L900 26L900 26L900 52L900 52L900 78L900 78L900 104L900 104L900 130L900 130L900 157L900 157L900 183L900 183L900 209L900 209L900 235L900 235L900 261L900 261L900 287L900 287L900 313L900 313L900 339L900 339L900 365L900 365L900 391L900 391L900 417L900 417L900 443L900 443L900 470L900 470L900 496L900 496L900 522L900 522L900 548L900 548L900 574L900 574L900 600L900 600Z" fill="#560090"></path><path d="M501 600L580 600L580 574L591 574L591 548L431 548L431 522L525 522L525 496L524 496L524 470L457 470L457 443L419 443L419 417L642 417L642 391L409 391L409 365L540 365L540 339L631 339L631 313L701 313L701 287L460 287L460 261L479 261L479 235L667 235L667 209L644 209L644 183L662 183L662 157L702 157L702 130L482 130L482 104L728 104L728 78L697 78L697 52L456 52L456 26L450 26L450 0L900 0L900 26L900 26L900 52L900 52L900 78L900 78L900 104L900 104L900 130L900 130L900 157L900 157L900 183L900 183L900 209L900 209L900 235L900 235L900 261L900 261L900 287L900 287L900 313L900 313L900 339L900 339L900 365L900 365L900 391L900 391L900 417L900 417L900 443L900 443L900 470L900 470L900 496L900 496L900 522L900 522L900 548L900 548L900 574L900 574L900 600L900 600Z" fill="#891b9a"></path><path d="M546 600L563 600L563 574L733 574L733 548L626 548L626 522L658 522L658 496L721 496L721 470L637 470L637 443L549 443L549 417L715 417L715 391L511 391L511 365L668 365L668 339L699 339L699 313L524 313L524 287L713 287L713 261L553 261L553 235L558 235L558 209L751 209L751 183L690 183L690 157L642 157L642 130L583 130L583 104L648 104L648 78L594 78L594 52L610 52L610 26L601 26L601 0L900 0L900 26L900 26L900 52L900 52L900 78L900 78L900 104L900 104L900 130L900 130L900 157L900 157L900 183L900 183L900 209L900 209L900 235L900 235L900 261L900 261L900 287L900 287L900 313L900 313L900 339L900 339L900 365L900 365L900 391L900 391L900 417L900 417L900 443L900 443L900 470L900 470L900 496L900 496L900 522L900 522L900 548L900 548L900 574L900 574L900 600L900 600Z" fill="#b438a4"></path><path d="M641 600L756 600L756 574L652 574L652 548L626 548L626 522L719 522L719 496L663 496L663 470L618 470L618 443L666 443L666 417L631 417L631 391L749 391L749 365L746 365L746 339L707 339L707 313L636 313L636 287L730 287L730 261L738 261L738 235L700 235L700 209L714 209L714 183L793 183L793 157L613 157L613 130L693 130L693 104L711 104L711 78L678 78L678 52L644 52L644 26L784 26L784 0L900 0L900 26L900 26L900 52L900 52L900 78L900 78L900 104L900 104L900 130L900 130L900 157L900 157L900 183L900 183L900 209L900 209L900 235L900 235L900 261L900 261L900 287L900 287L900 313L900 313L900 339L900 339L900 365L900 365L900 391L900 391L900 417L900 417L900 443L900 443L900 470L900 470L900 496L900 496L900 522L900 522L900 548L900 548L900 574L900 574L900 600L900 600Z" fill="#db57af"></path><path d="M803 600L732 600L732 574L808 574L808 548L740 548L740 522L791 522L791 496L788 496L788 470L793 470L793 443L714 443L714 417L819 417L819 391L708 391L708 365L780 365L780 339L814 339L814 313L712 313L712 287L778 287L778 261L801 261L801 235L735 235L735 209L726 209L726 183L725 183L725 157L824 157L824 130L787 130L787 104L748 104L748 78L751 78L751 52L742 52L742 26L763 26L763 0L900 0L900 26L900 26L900 52L900 52L900 78L900 78L900 104L900 104L900 130L900 130L900 157L900 157L900 183L900 183L900 209L900 209L900 235L900 235L900 261L900 261L900 287L900 287L900 313L900 313L900 339L900 339L900 365L900 365L900 391L900 391L900 417L900 417L900 443L900 443L900 470L900 470L900 496L900 496L900 522L900 522L900 548L900 548L900 574L900 574L900 600L900 600Z" fill="#ff77bb"></path></svg>