<svg id="visual" viewBox="0 0 900 600" width="900" height="600" xmlns="http://www.w3.org/2000/svg" xmlns:xlink="http://www.w3.org/1999/xlink" version="1.1"><rect x="0" y="0" width="900" height="600" fill="#171a1c"></rect><path d="M276 600L392 600L392 574L513 574L513 548L656 548L656 522L308 522L308 496L626 496L626 470L390 470L390 443L734 443L734 417L592 417L592 391L374 391L374 365L593 365L593 339L359 339L359 313L611 313L611 287L442 287L442 261L590 261L590 235L559 235L559 209L737 209L737 183L623 183L623 157L610 157L610 130L570 130L570 104L549 104L549 78L550 78L550 52L604 52L604 26L404 26L404 0L900 0L900 26L900 26L900 52L900 52L900 78L900 78L900 104L900 104L900 130L900 130L900 157L900 157L900 183L900 183L900 209L900 209L900 235L900 235L900 261L900 261L900 287L900 287L900 313L900 313L900 339L900 339L900 365L900 365L900 391L900 391L900 417L900 417L900 443L900 443L900 470L900 470L900 496L900 496L900 522L900 522L900 548L900 548L900 574L900 574L900 600L900 600Z" fill="#ff77bb"></path><path d="M448 600L375 600L375 574L586 574L586 548L696 548L696 522L702 522L702 496L387 496L387 470L427 470L427 443L730 443L730 417L521 417L521 391L624 391L624 365L379 365L379 339L750 339L750 313L528 313L528 287L475 287L475 261L452 261L452 235L626 235L626 209L603 209L603 183L577 183L577 157L623 157L623 130L716 130L716 104L686 104L686 78L335 78L335 52L757 52L757 26L647 26L647 0L900 0L900 26L900 26L900 52L900 52L900 78L900 78L900 104L900 104L900 130L900 130L900 157L900 157L900 183L900 183L900 209L900 209L900 235L900 235L900 261L900 261L900 287L900 287L900 313L900 313L900 339L900 339L900 365L900 365L900 391L900 391L900 417L900 417L900 443L900 443L900 470L900 470L900 496L900 496L900 522L900 522L900 548L900 548L900 574L900 574L900 600L900 600Z" fill="#ff6eb0"></path><path d="M695 600L493 600L493 574L552 574L552 548L419 548L419 522L514 522L514 496L481 496L481 470L498 470L498 443L448 443L448 417L734 417L734 391L686 391L686 365L614 365L614 339L687 339L687 313L495 313L495 287L640 287L640 261L434 261L434 235L532 235L532 209L676 209L676 183L698 183L698 157L576 157L576 130L394 130L394 104L528 104L528 78L775 78L775 52L531 52L531 26L754 26L754 0L900 0L900 26L900 26L900 52L900 52L900 78L900 78L900 104L900 104L900 130L900 130L900 157L900 157L900 183L900 183L900 209L900 209L900 235L900 235L900 261L900 261L900 287L900 287L900 313L900 313L900 339L900 339L900 365L900 365L900 391L900 391L900 417L900 417L900 443L900 443L900 470L900 470L900 496L900 496L900 522L900 522L900 548L900 548L900 574L900 574L900 600L900 600Z" fill="#ff66a5"></path><path d="M622 600L704 600L704 574L543 574L543 548L585 548L585 522L792 522L792 496L456 496L456 470L748 470L748 443L484 443L484 417L556 417L556 391L619 391L619 365L699 365L699 339L483 339L483 313L619 313L619 287L707 287L707 261L674 261L674 235L523 235L523 209L485 209L485 183L446 183L446 157L642 157L642 130L520 130L520 104L716 104L716 78L517 78L517 52L454 52L454 26L669 26L669 0L900 0L900 26L900 26L900 52L900 52L900 78L900 78L900 104L900 104L900 130L900 130L900 157L900 157L900 183L900 183L900 209L900 209L900 235L900 235L900 261L900 261L900 287L900 287L900 313L900 313L900 339L900 339L900 365L900 365L900 391L900 391L900 417L900 417L900 443L900 443L900 470L900 470L900 496L900 496L900 522L900 522L900 548L900 548L900 574L900 574L900 600L900 600Z" fill="#ff5d9a"></path><path d="M526 600L785 600L785 574L747 574L747 548L692 548L692 522L662 522L662 496L691 496L691 470L672 470L672 443L771 443L771 417L576 417L576 391L759 391L759 365L713 365L713 339L768 339L768 313L677 313L677 287L598 287L598 261L684 261L684 235L544 235L544 209L696 209L696 183L580 183L580 157L706 157L706 130L773 130L773 104L529 104L529 78L641 78L641 52L577 52L577 26L677 26L677 0L900 0L900 26L900 26L900 52L900 52L900 78L900 78L900 104L900 104L900 130L900 130L900 157L900 157L900 183L900 183L900 209L900 209L900 235L900 235L900 261L900 261L900 287L900 287L900 313L900 313L900 339L900 339L900 365L900 365L900 391L900 391L900 417L900 417L900 443L900 443L900 470L900 470L900 496L900 496L900 522L900 522L900 548L900 548L900 574L900 574L900 600L900 600Z" fill="#ff548e"></path><path d="M820 600L768 600L768 574L791 574L791 548L759 548L759 522L808 522L808 496L820 496L820 470L586 470L586 443L713 443L713 417L613 417L613 391L729 391L729 365L601 365L601 339L656 339L656 313L643 313L643 287L694 287L694 261L797 261L797 235L785 235L785 209L658 209L658 183L816 183L816 157L782 157L782 130L828 130L828 104L590 104L590 78L696 78L696 52L712 52L712 26L568 26L568 0L900 0L900 26L900 26L900 52L900 52L900 78L900 78L900 104L900 104L900 130L900 130L900 157L900 157L900 183L900 183L900 209L900 209L900 235L900 235L900 261L900 261L900 287L900 287L900 313L900 313L900 339L900 339L900 365L900 365L900 391L900 391L900 417L900 417L900 443L900 443L900 470L900 470L900 496L900 496L900 522L900 522L900 548L900 548L900 574L900 574L900 600L900 600Z" fill="#ff4a82"></path><path d="M660 600L646 600L646 574L627 574L627 548L641 548L641 522L806 522L806 496L743 496L743 470L834 470L834 443L773 443L773 417L818 417L818 391L818 391L818 365L814 365L814 339L672 339L672 313L845 313L845 287L827 287L827 261L797 261L797 235L772 235L772 209L708 209L708 183L740 183L740 157L845 157L845 130L775 130L775 104L809 104L809 78L705 78L705 52L800 52L800 26L690 26L690 0L900 0L900 26L900 26L900 52L900 52L900 78L900 78L900 104L900 104L900 130L900 130L900 157L900 157L900 183L900 183L900 209L900 209L900 235L900 235L900 261L900 261L900 287L900 287L900 313L900 313L900 339L900 339L900 365L900 365L900 391L900 391L900 417L900 417L900 443L900 443L900 470L900 470L900 496L900 496L900 522L900 522L900 548L900 548L900 574L900 574L900 600L900 600Z" fill="#ff4175"></path><path d="M677 600L734 600L734 574L739 574L739 548L676 548L676 522L816 522L816 496L803 496L803 470L678 470L678 443L798 443L798 417L686 417L686 391L810 391L810 365L702 365L702 339L673 339L673 313L838 313L838 287L815 287L815 261L716 261L716 235L682 235L682 209L836 209L836 183L768 183L768 157L836 157L836 130L726 130L726 104L724 104L724 78L774 78L774 52L765 52L765 26L741 26L741 0L900 0L900 26L900 26L900 52L900 52L900 78L900 78L900 104L900 104L900 130L900 130L900 157L900 157L900 183L900 183L900 209L900 209L900 235L900 235L900 261L900 261L900 287L900 287L900 313L900 313L900 339L900 339L900 365L900 365L900 391L900 391L900 417L900 417L900 443L900 443L900 470L900 470L900 496L900 496L900 522L900 522L900 548L900 548L900 574L900 574L900 600L900 600Z" fill="#ff3868"></path><path d="M735 600L868 600L868 574L738 574L738 548L742 548L742 522L729 522L729 496L846 496L846 470L816 470L816 443L857 443L857 417L816 417L816 391L815 391L815 365L838 365L838 339L770 339L770 313L751 313L751 287L787 287L787 261L731 261L731 235L773 235L773 209L822 209L822 183L789 183L789 157L822 157L822 130L824 130L824 104L802 104L802 78L816 78L816 52L846 52L846 26L811 26L811 0L900 0L900 26L900 26L900 52L900 52L900 78L900 78L900 104L900 104L900 130L900 130L900 157L900 157L900 183L900 183L900 209L900 209L900 235L900 235L900 261L900 261L900 287L900 287L900 313L900 313L900 339L900 339L900 365L900 365L900 391L900 391L900 417L900 417L900 443L900 443L900 470L900 470L900 496L900 496L900 522L900 522L900 548L900 548L900 574L900 574L900 600L900 600Z" fill="#ff2f5a"></path><path d="M892 600L851 600L851 574L886 574L886 548L865 548L865 522L891 522L891 496L872 496L872 470L805 470L805 443L825 443L825 417L840 417L840 391L853 391L853 365L844 365L844 339L791 339L791 313L874 313L874 287L882 287L882 261L817 261L817 235L806 235L806 209L800 209L800 183L827 183L827 157L796 157L796 130L859 130L859 104L857 104L857 78L842 78L842 52L804 52L804 26L847 26L847 0L900 0L900 26L900 26L900 52L900 52L900 78L900 78L900 104L900 104L900 130L900 130L900 157L900 157L900 183L900 183L900 209L900 209L900 235L900 235L900 261L900 261L900 287L900 287L900 313L900 313L900 339L900 339L900 365L900 365L900 391L900 391L900 417L900 417L900 443L900 443L900 470L900 470L900 496L900 496L900 522L900 522L900 548L900 548L900 574L900 574L900 600L900 600Z" fill="#ff274b"></path></svg>