<svg id="visual" viewBox="0 0 900 600" width="900" height="600" xmlns="http://www.w3.org/2000/svg" xmlns:xlink="http://www.w3.org/1999/xlink" version="1.1"><rect x="0" y="0" width="900" height="600" fill="#140021"></rect><path d="M264 0L461 0L461 26L684 26L684 52L822 52L822 78L47 78L47 104L416 104L416 130L373 130L373 157L527 157L527 183L647 183L647 209L853 209L853 235L313 235L313 261L400 261L400 287L411 287L411 313L98 313L98 339L204 339L204 365L176 365L176 391L901 391L901 417L115 417L115 443L620 443L620 470L143 470L143 496L517 496L517 522L546 522L546 548L317 548L317 574L616 574L616 600L0 600L0 574L0 574L0 548L0 548L0 522L0 522L0 496L0 496L0 470L0 470L0 443L0 443L0 417L0 417L0 391L0 391L0 365L0 365L0 339L0 339L0 313L0 313L0 287L0 287L0 261L0 261L0 235L0 235L0 209L0 209L0 183L0 183L0 157L0 157L0 130L0 130L0 104L0 104L0 78L0 78L0 52L0 52L0 26L0 26L0 0L0 0Z" fill="#560090"></path><path d="M380 0L105 0L105 26L287 26L287 52L160 52L160 78L590 78L590 104L162 104L162 130L353 130L353 157L465 157L465 183L208 183L208 209L122 209L122 235L133 235L133 261L572 261L572 287L355 287L355 313L459 313L459 339L265 339L265 365L503 365L503 391L22 391L22 417L237 417L237 443L346 443L346 470L14 470L14 496L152 496L152 522L564 522L564 548L38 548L38 574L239 574L239 600L0 600L0 574L0 574L0 548L0 548L0 522L0 522L0 496L0 496L0 470L0 470L0 443L0 443L0 417L0 417L0 391L0 391L0 365L0 365L0 339L0 339L0 313L0 313L0 287L0 287L0 261L0 261L0 235L0 235L0 209L0 209L0 183L0 183L0 157L0 157L0 130L0 130L0 104L0 104L0 78L0 78L0 52L0 52L0 26L0 26L0 0L0 0Z" fill="#7700c6"></path><path d="M316 0L13 0L13 26L177 26L177 52L30 52L30 78L211 78L211 104L340 104L340 130L347 130L347 157L72 157L72 183L302 183L302 209L258 209L258 235L59 235L59 261L71 261L71 287L66 287L66 313L264 313L264 339L136 339L136 365L58 365L58 391L189 391L189 417L17 417L17 443L66 443L66 470L49 470L49 496L96 496L96 522L171 522L171 548L210 548L210 574L147 574L147 600L0 600L0 574L0 574L0 548L0 548L0 522L0 522L0 496L0 496L0 470L0 470L0 443L0 443L0 417L0 417L0 391L0 391L0 365L0 365L0 339L0 339L0 313L0 313L0 287L0 287L0 261L0 261L0 235L0 235L0 209L0 209L0 183L0 183L0 157L0 157L0 130L0 130L0 104L0 104L0 78L0 78L0 52L0 52L0 26L0 26L0 0L0 0Z" fill="#9900ff"></path></svg>