<svg id="visual" viewBox="0 0 900 600" width="900" height="600" xmlns="http://www.w3.org/2000/svg" xmlns:xlink="http://www.w3.org/1999/xlink" version="1.1"><path d="M0 139L13.7 144C27.3 149 54.7 159 82 164C109.3 169 136.7 169 163.8 163C191 157 218 145 245.2 146C272.3 147 299.7 161 327 164C354.3 167 381.7 159 409 151C436.3 143 463.7 135 491 132C518.3 129 545.7 131 573 135C600.3 139 627.7 145 654.8 151C682 157 709 163 736.2 159C763.3 155 790.7 141 818 137C845.3 133 872.7 139 886.3 142L900 145L900 0L886.3 0C872.7 0 845.3 0 818 0C790.7 0 763.3 0 736.2 0C709 0 682 0 654.8 0C627.7 0 600.3 0 573 0C545.7 0 518.3 0 491 0C463.7 0 436.3 0 409 0C381.7 0 354.3 0 327 0C299.7 0 272.3 0 245.2 0C218 0 191 0 163.8 0C136.7 0 109.3 0 82 0C54.7 0 27.3 0 13.7 0L0 0Z" fill="#ff274b"></path><path d="M0 421L13.7 418C27.3 415 54.7 409 82 399C109.3 389 136.7 375 163.8 363C191 351 218 341 245.2 345C272.3 349 299.7 367 327 374C354.3 381 381.7 377 409 380C436.3 383 463.7 393 491 392C518.3 391 545.7 379 573 371C600.3 363 627.7 359 654.8 359C682 359 709 363 736.2 360C763.3 357 790.7 347 818 343C845.3 339 872.7 341 886.3 342L900 343L900 143L886.3 140C872.7 137 845.3 131 818 135C790.7 139 763.3 153 736.2 157C709 161 682 155 654.8 149C627.7 143 600.3 137 573 133C545.7 129 518.3 127 491 130C463.7 133 436.3 141 409 149C381.7 157 354.3 165 327 162C299.7 159 272.3 145 245.2 144C218 143 191 155 163.8 161C136.7 167 109.3 167 82 162C54.7 157 27.3 147 13.7 142L0 137Z" fill="#702970"></path><path d="M0 601L13.7 601C27.3 601 54.7 601 82 601C109.3 601 136.7 601 163.8 601C191 601 218 601 245.2 601C272.3 601 299.7 601 327 601C354.3 601 381.7 601 409 601C436.3 601 463.7 601 491 601C518.3 601 545.7 601 573 601C600.3 601 627.7 601 654.8 601C682 601 709 601 736.2 601C763.3 601 790.7 601 818 601C845.3 601 872.7 601 886.3 601L900 601L900 341L886.3 340C872.7 339 845.3 337 818 341C790.7 345 763.3 355 736.2 358C709 361 682 357 654.8 357C627.7 357 600.3 361 573 369C545.7 377 518.3 389 491 390C463.7 391 436.3 381 409 378C381.7 375 354.3 379 327 372C299.7 365 272.3 347 245.2 343C218 339 191 349 163.8 361C136.7 373 109.3 387 82 397C54.7 407 27.3 413 13.7 416L0 419Z" fill="#001122"></path></svg>