<svg id="visual" viewBox="0 0 900 600" width="900" height="600" xmlns="http://www.w3.org/2000/svg" xmlns:xlink="http://www.w3.org/1999/xlink" version="1.1"><rect x="0" y="0" width="900" height="600" fill="#171a1c"></rect><path d="M226 0L105 0L105 19L169 19L169 39L710 39L710 58L543 58L543 77L522 77L522 97L269 97L269 116L205 116L205 135L429 135L429 155L296 155L296 174L492 174L492 194L739 194L739 213L316 213L316 232L710 232L710 252L483 252L483 271L763 271L763 290L623 290L623 310L714 310L714 329L126 329L126 348L400 348L400 368L137 368L137 387L662 387L662 406L250 406L250 426L567 426L567 445L669 445L669 465L470 465L470 484L364 484L364 503L562 503L562 523L547 523L547 542L542 542L542 561L106 561L106 581L458 581L458 600L0 600L0 581L0 581L0 561L0 561L0 542L0 542L0 523L0 523L0 503L0 503L0 484L0 484L0 465L0 465L0 445L0 445L0 426L0 426L0 406L0 406L0 387L0 387L0 368L0 368L0 348L0 348L0 329L0 329L0 310L0 310L0 290L0 290L0 271L0 271L0 252L0 252L0 232L0 232L0 213L0 213L0 194L0 194L0 174L0 174L0 155L0 155L0 135L0 135L0 116L0 116L0 97L0 97L0 77L0 77L0 58L0 58L0 39L0 39L0 19L0 19L0 0L0 0Z" fill="#9d319d" stroke-linecap="square" stroke-linejoin="miter"></path></svg>