<svg id="visual" viewBox="0 0 900 600" width="900" height="600" xmlns="http://www.w3.org/2000/svg" xmlns:xlink="http://www.w3.org/1999/xlink" version="1.1"><rect x="0" y="0" width="900" height="600" fill="#171a1c"></rect><path d="M766 600L839 600L839 581L800 581L800 561L476 561L476 542L576 542L576 523L588 523L588 503L740 503L740 484L779 484L779 465L644 465L644 445L724 445L724 426L606 426L606 406L458 406L458 387L712 387L712 368L476 368L476 348L612 348L612 329L444 329L444 310L528 310L528 290L473 290L473 271L826 271L826 252L662 252L662 232L820 232L820 213L504 213L504 194L752 194L752 174L562 174L562 155L500 155L500 135L619 135L619 116L683 116L683 97L564 97L564 77L573 77L573 58L577 58L577 39L838 39L838 19L627 19L627 0L900 0L900 19L900 19L900 39L900 39L900 58L900 58L900 77L900 77L900 97L900 97L900 116L900 116L900 135L900 135L900 155L900 155L900 174L900 174L900 194L900 194L900 213L900 213L900 232L900 232L900 252L900 252L900 271L900 271L900 290L900 290L900 310L900 310L900 329L900 329L900 348L900 348L900 368L900 368L900 387L900 387L900 406L900 406L900 426L900 426L900 445L900 445L900 465L900 465L900 484L900 484L900 503L900 503L900 523L900 523L900 542L900 542L900 561L900 561L900 581L900 581L900 600L900 600Z" fill="#ff274b" stroke-linecap="square" stroke-linejoin="miter"></path></svg>